<?xml version="1.0" encoding="UTF-8"?>
<svg width="50px" height="51px" viewBox="0 0 50 51" version="1.1" xmlns="http://www.w3.org/2000/svg" xmlns:xlink="http://www.w3.org/1999/xlink">
    <!-- Generator: Sketch 48.1 (47250) - http://www.bohemiancoding.com/sketch -->
    <title>s</title>
    <desc>Created with Sketch.</desc>
    <defs></defs>
    <g id="Artboard-Copy-29" stroke="none" stroke-width="1" fill="none" fill-rule="evenodd" transform="translate(-805.000000, -31.000000)">
        <g id="Group-3" transform="translate(205.000000, 31.000000)" fill="#333333" fill-rule="nonzero">
            <g id="s" transform="translate(599.000000, 0.000000)">
                <g id="Vector" transform="translate(16.000000, 0.000000)">
                    <g id="path0_fill-link" transform="translate(0.062000, 0.000000)">
                        <path d="M10.0629,0 C15.5389,2.03835e-15 20.7577,4.27015 25.6204,4.28803 C31.4814,4.30957 33.0544,0.538697 34.5134,0.538697 C34.6872,0.538697 34.7943,0.594624 34.8575,0.668284 C34.9676,0.796607 34.9443,0.978746 34.9075,1.01275 C34.3257,1.55145 27.6774,11.0723 20.3196,10.8601 C13.9306,10.6759 10.975,6.73055 5.96876,6.83067 C6.67317,16.567 29.3815,19.5572 28.5078,32.0632 C28.3411,34.4495 27.4339,36.6902 26.3583,38.5302 C24.702,41.3636 22.6463,43.2466 22.2805,43.2466 C21.9944,43.2466 21.8064,43.133 21.8064,42.8587 C21.8064,42.2884 22.8931,41.5738 22.8838,38.4414 C22.8407,23.8535 -3.74983e-15,23.6183 0,11.248 C1.43687e-15,6.50788 5.02235,-1.87622e-15 10.0629,0 Z" id="path0_fill"></path>
                    </g>
                </g>
                <g id="Vector" transform="translate(0.000000, 6.000000)">
                    <g id="path0_fill-link" transform="translate(18.438000, 22.142000) rotate(180.000000) translate(-18.438000, -22.142000) translate(0.938000, 0.142000)">
                        <path d="M10.0629,0 C15.5389,2.03835e-15 20.7577,4.27015 25.6204,4.28803 C31.4814,4.30957 33.0544,0.538697 34.5134,0.538697 C34.6872,0.538697 34.7943,0.594624 34.8575,0.668284 C34.9676,0.796607 34.9443,0.978746 34.9075,1.01275 C34.3257,1.55145 27.6774,11.0723 20.3196,10.8601 C13.9306,10.6759 10.975,6.73055 5.96876,6.83067 C6.67317,16.567 29.3815,19.5572 28.5078,32.0632 C28.3411,34.4495 27.4339,36.6902 26.3583,38.5302 C24.702,41.3636 22.6463,43.2466 22.2805,43.2466 C21.9944,43.2466 21.8064,43.133 21.8064,42.8587 C21.8064,42.2884 22.8931,41.5738 22.8838,38.4414 C22.8407,23.8535 -3.74983e-15,23.6183 0,11.248 C1.43687e-15,6.50788 5.02235,-1.87622e-15 10.0629,0 Z" id="path0_fill"></path>
                    </g>
                </g>
            </g>
        </g>
    </g>
</svg>