<?xml version="1.0" encoding="utf-8"?>
<!-- Generator: Adobe Illustrator 23.1.1, SVG Export Plug-In . SVG Version: 6.00 Build 0)  -->
<svg version="1.1" id="Layer_1" xmlns="http://www.w3.org/2000/svg" xmlns:xlink="http://www.w3.org/1999/xlink" x="0px" y="0px"
	 viewBox="0 0 256 256" style="enable-background:new 0 0 256 256;" xml:space="preserve">
<style type="text/css">
	.st0{clip-path:url(#SVGID_2_);fill:#FFFFFF;}
</style>
<g>
	<defs>
		<rect id="SVGID_1_" x="0.3" y="-0.56" width="256" height="256"/>
	</defs>
	<clipPath id="SVGID_2_">
		<use xlink:href="#SVGID_1_"  style="overflow:visible;"/>
	</clipPath>
	<path class="st0" d="M110.82,202.13c0.14-1.69,2.26-5.49,0.71-8.99c-1.55-3.5-1.11-6.92,1.94-12.04c3.06-5.12,7.76-5.76,8.55-6.21
		c2.12-1.24,2.93-3.06,3.49-5.44c0.58-2.43,0.33-22.23,2.72-25.63c3.5-12.82,26.25-42.59,38.99-51.29
		c13.06-8.92,18.27-12.41,33.02-16.31c1.4-0.37,1.68,0.25,1.14,0.83c-1.11,1.19-16.12,13.72-17.05,25.49s-22.69,49.44-33.95,63.43
		c-6.03,7.49-13.59,5.44-18.26,6.6c-4.27,1.55-8.06,5.96-7.64,7.03c0.58,1.49,1.82,5.01,1.04,7.73c-1.91,6.7-10.63,9.22-10.88,11.16
		c-0.25,2.03-0.35,4.05,0,6.06c0.63,3.62,1.94,6.97,4.24,9.86c1.29,1.62,3.11,2.4,5.21,2.73c-0.09,0.23-0.15,0.45-0.26,0.64
		c-1.14,1.86-2.32,3.7-3.42,5.58c-0.37,0.64-0.6,1.38-0.79,2.09c-0.25,0.92-1.04,1.29-1.79,0.67c-0.6-0.5-1.11-1.13-1.6-1.76
		c-1.83-2.32-2.87-5.03-3.74-7.81c-0.46-1.48-0.84-2.98-1.29-4.47c-0.14-0.45-0.32-0.91-0.59-1.28c-2.66-3.61-4.65-7.6-6.46-11.68
		c-0.35-0.79-0.58-1.65-0.85-2.48c-0.68-2.17-0.88-4.33-2.64-5.82c-0.93-0.79-11.2-1.33-14.01-6.18c-3.85-6.64,0.81-11.3-4.02-14.49
		c-4.1-4.96-21.26,2.02-23.14-28.65C58.3,122.08,73.1,84.97,78.9,77.4c8.93-11.65,28.74-20.97,34.57-25.25
		c3.93-2.88,9.62-4.37,9.87-4.23c0.46,0.25,0.51,0.54,0,0.86c-9.87,9.2-9.98,26.68-14.53,36.77c-4.55,10.09-14.88,25.39-17.48,35.73
		c-3.61,9.86-12.62,39.42-5.44,46.61c0,0,1.15,1.25,2.33,1.17c2.23-0.16,8.07,0.43,10.1,3.88c1.01,1.72,2.33,8.54,2.33,11.65
		c0,2.86,0.97,3.3,1.94,3.5c0.19-0.54,0.19-4.47,0.82-7.06c0.54-2.07,1.03-3.01,1.62-4.48c0.25-0.61,1.99-3.85,1.64-4.35
		c-0.38-0.55-0.82-1.07-1.3-1.52c-0.49-0.45-4.48-2.41-5.62-3.33c-2.92-2.34-4.28-5.21-3.76-9.08c1.94-7.86,4.97-10.27,9.82-15.12
		c6.1-12.93-8.27-8.66,11.7-54.26c9.14-20.86,28.97-38.3,44.18-48.67c7.49-5.11,25.28-4.98,25.76-4.65
		c0.35,0.24,0.48,0.56,0.04,0.85c-0.86,0.56-5.59,0.23-12.43,7.2C168.24,50.6,159.3,84,147.17,99.6
		c-7.47,9.61-23.21,33.33-29.23,39.35c-6.02,6.02-6.84,2.84-8.35,5.24c-1.51,2.41,5.05,6.6,3.49,12.82
		c-0.94,2.27-1.98,4.68-3.03,6.91c-0.54,1.14-1.39,3.06-1.22,4.25c0.08,0.55,2.7,3.21,1.44,6.12c-1.86,3.01-2.71,6.34-3.1,9.8
		c-0.36,3.2-0.32,6.43,0.11,9.61c0.35,2.59,0.95,3.9,3,7.73c0.12,0.22,0.19,0.48,0.29,0.72
		C110.66,202.15,110.74,202.14,110.82,202.13"/>
</g>
</svg>
